<?xml version="1.0" standalone="no"?>
<!DOCTYPE svg PUBLIC "-//W3C//DTD SVG 20010904//EN"
 "http://www.w3.org/TR/2001/REC-SVG-20010904/DTD/svg10.dtd">
<svg version="1.0" xmlns="http://www.w3.org/2000/svg"
 width="152.000000pt" height="152.000000pt" viewBox="0 0 152.000000 152.000000"
 preserveAspectRatio="xMidYMid meet">
<metadata>
Created by potrace 1.11, written by Peter Selinger 2001-2013
</metadata>
<g transform="translate(0.000000,152.000000) scale(0.100000,-0.100000)"
fill="#000000" stroke="none">
<path d="M494 1326 c-29 -13 -104 -90 -104 -108 0 -5 -24 -23 -52 -42 -96 -62
-127 -115 -108 -187 19 -68 98 -123 240 -165 68 -20 72 -23 45 -29 -174 -37
-252 -69 -284 -113 -51 -72 -29 -160 55 -223 25 -18 61 -60 81 -92 50 -83 109
-115 177 -96 54 15 82 44 125 129 l40 80 6 -58 c7 -58 50 -200 65 -215 4 -5
21 -2 38 7 l30 15 -26 63 c-20 51 -26 84 -29 168 l-3 105 19 -53 c57 -152 121
-240 179 -244 84 -4 122 16 169 90 19 31 62 81 94 110 66 60 85 104 69 163
-13 45 -39 73 -99 104 -43 21 -83 33 -206 61 -28 6 -26 7 30 23 98 28 183 71
220 112 30 33 35 46 35 87 0 63 -25 101 -98 151 -33 22 -70 56 -82 75 -46 76
-117 108 -185 86 -69 -23 -119 -111 -154 -274 l-17 -79 -18 84 c-33 153 -79
239 -142 265 -41 17 -70 17 -110 0z"/>
</g>
</svg>
